# xmcd
#
# Track frame offsets:
#	150
#	17343
#	34813
#	50653
#	63471
#	79309
#	96460
#	114149
#	131897
#	149500
#	166887
#	182503
#	197424
#	215352
#	230655
#	249578
#	261244
#	280399
#	295412
#
# Disc length: 4142 seconds
#
# Revision: 0
# Processed by: cddbd v1.5.2PL0 Copyright (c) Steve Scherf et al.
# Submitted via: EasyCDDAExtractor 11.0.2.1
#
DISCID=1f102c13
DTITLE=Various Artist - Wenn Du Lachst
DYEAR=2008
DGENRE=Various
TTITLE0=Dana Winner - Als je lacht
TTITLE1=Claudia Jung, Nik P. - Sommerwein, wie die Liebe süß und wild
TTITLE2=Helmut Lotti - When A Man Loves A Woman
TTITLE3=Jack Johnson - Traffic In The Sky
TTITLE4=Kenny Chesney - No Shoes, No Shirt, No Problems
TTITLE5=Dana Winner - Wenn du lachst
TTITLE6=Roy Orbison - California Blue
TTITLE7=Ronan Keating - Life Is A Rollercoaster
TTITLE8=Ville Valo and Natalia Avelon - Summer Wine
TTITLE9=Michael Bolton - When a Man Loves a Woman
TTITLE10=Helene Fischer - Mitten Im Paradies
TTITLE11=John Prine - Same Thing Happened to Me
TTITLE12=Billy Swan - I Can Help
TTITLE13=Engelbert - Please Release Me
TTITLE14=John Prine - Glory of True Love
TTITLE15=Merle Haggard - Working Man Blues
TTITLE16=Bellicoons - Summerwine
TTITLE17=Engelbert - Quando Quando Quando
TTITLE18=John Prine - New Train
EXTD=Verschiedene gekaufte Musiktitel ab CD und DRM WMA\n
EXTT0=
EXTT1=
EXTT2=
EXTT3=
EXTT4=
EXTT5=
EXTT6=
EXTT7=
EXTT8=
EXTT9=
EXTT10=
EXTT11=
EXTT12=
EXTT13=
EXTT14=
EXTT15=
EXTT16=
EXTT17=
EXTT18=
PLAYORDER=
